<svg width="291" height="291" viewBox="0 0 291 291" fill="none" xmlns="http://www.w3.org/2000/svg">
<g filter="url(#filter0_d_1_7)">
<rect x="4" width="283" height="283" rx="25" fill="#E21833"/>
</g>
<path d="M43.459 46.8423L43.1074 50.6655C44.3965 47.9263 46.2642 46.4761 48.7104 46.3149V56.5762C47.0845 56.5762 45.8906 56.7959 45.1289 57.2354C44.3672 57.6748 43.8984 58.29 43.7227 59.0811C43.5469 59.8574 43.459 61.6592 43.459 64.4863V76H34.582V46.8423H43.459ZM70.8149 61.9375H59.3232V68.2437C59.3232 69.562 59.4185 70.4116 59.6089 70.7925C59.7993 71.1733 60.1655 71.3638 60.7075 71.3638C61.3813 71.3638 61.8281 71.1147 62.0479 70.6167C62.2822 70.104 62.3994 69.1226 62.3994 67.6724V63.8271H70.8149V65.9805C70.8149 67.7822 70.6978 69.1665 70.4634 70.1333C70.2437 71.1001 69.7163 72.1328 68.8813 73.2314C68.0464 74.3301 66.9844 75.1577 65.6953 75.7144C64.4209 76.2563 62.8169 76.5273 60.8833 76.5273C59.0083 76.5273 57.353 76.2563 55.9175 75.7144C54.4819 75.1724 53.3613 74.4326 52.5557 73.4951C51.7646 72.543 51.2153 71.5029 50.9077 70.375C50.6001 69.2324 50.4463 67.5771 50.4463 65.4092V56.9058C50.4463 54.3569 50.7905 52.3501 51.479 50.8853C52.1675 49.4058 53.2954 48.2778 54.8628 47.5015C56.4302 46.7104 58.2319 46.3149 60.2681 46.3149C62.7583 46.3149 64.8091 46.791 66.4204 47.7432C68.0464 48.6807 69.1816 49.9331 69.8262 51.5005C70.4854 53.0532 70.8149 55.2432 70.8149 58.0703V61.9375ZM61.916 57.1914V55.0601C61.916 53.5513 61.8354 52.5771 61.6743 52.1377C61.5132 51.6982 61.1836 51.4785 60.6855 51.4785C60.0703 51.4785 59.6895 51.6689 59.543 52.0498C59.3965 52.416 59.3232 53.4194 59.3232 55.0601V57.1914H61.916ZM93.3589 57.8506H84.9873V54.4888C84.9873 53.3169 84.8921 52.5259 84.7017 52.1157C84.5112 51.6909 84.1597 51.4785 83.647 51.4785C83.1343 51.4785 82.79 51.6616 82.6143 52.0278C82.4385 52.394 82.3506 53.2144 82.3506 54.4888V68.2437C82.3506 69.2837 82.4824 70.0674 82.7461 70.5947C83.0098 71.1074 83.3979 71.3638 83.9106 71.3638C84.5112 71.3638 84.9141 71.0928 85.1191 70.5508C85.3389 70.0088 85.4487 68.9834 85.4487 67.4746V64.0029H93.3589C93.3442 66.332 93.2563 68.0825 93.0952 69.2544C92.9487 70.4116 92.458 71.6055 91.623 72.8359C90.8027 74.0518 89.7261 74.9746 88.3931 75.6045C87.0601 76.2197 85.4121 76.5273 83.4492 76.5273C80.9443 76.5273 78.9595 76.1025 77.4946 75.2529C76.0298 74.3887 74.9897 73.1875 74.3745 71.6494C73.7739 70.0967 73.4736 67.8994 73.4736 65.0576V56.7739C73.4736 54.2983 73.7227 52.4307 74.2207 51.1709C74.7188 49.9111 75.7808 48.7905 77.4067 47.8091C79.0327 46.813 81.0103 46.3149 83.3394 46.3149C85.6538 46.3149 87.6313 46.8057 89.272 47.7871C90.9126 48.7686 92.0039 50.0063 92.5459 51.5005C93.0879 52.9946 93.3589 55.1113 93.3589 57.8506ZM116.101 57.0815V64.2227C116.101 66.8447 115.969 68.771 115.705 70.0015C115.441 71.2173 114.877 72.3599 114.013 73.4292C113.149 74.4839 112.036 75.2676 110.673 75.7803C109.326 76.2783 107.773 76.5273 106.015 76.5273C104.052 76.5273 102.39 76.3149 101.027 75.8901C99.665 75.4507 98.603 74.7988 97.8413 73.9346C97.0942 73.0557 96.5596 72.001 96.2373 70.7705C95.915 69.5254 95.7539 67.665 95.7539 65.1895V57.7188C95.7539 55.0088 96.0469 52.8921 96.6328 51.3687C97.2188 49.8452 98.2734 48.6221 99.7969 47.6992C101.32 46.7764 103.269 46.3149 105.642 46.3149C107.634 46.3149 109.34 46.6152 110.761 47.2158C112.197 47.8018 113.303 48.5708 114.079 49.5229C114.855 50.4751 115.383 51.4565 115.661 52.4673C115.954 53.478 116.101 55.0161 116.101 57.0815ZM107.224 54.8843C107.224 53.3901 107.143 52.4526 106.982 52.0718C106.821 51.6763 106.477 51.4785 105.949 51.4785C105.422 51.4785 105.07 51.6763 104.895 52.0718C104.719 52.4526 104.631 53.3901 104.631 54.8843V68.0459C104.631 69.4229 104.719 70.3237 104.895 70.7485C105.07 71.1587 105.415 71.3638 105.927 71.3638C106.455 71.3638 106.799 71.1733 106.96 70.7925C107.136 70.4116 107.224 69.5913 107.224 68.3315V54.8843ZM127.812 46.8423L127.658 49.6108C128.347 48.5122 129.167 47.6919 130.119 47.1499C131.071 46.5933 132.155 46.3149 133.371 46.3149C135.744 46.3149 137.612 47.4136 138.974 49.6108C139.721 48.5122 140.563 47.6919 141.501 47.1499C142.438 46.5933 143.479 46.3149 144.621 46.3149C146.13 46.3149 147.375 46.6812 148.356 47.4136C149.353 48.146 149.99 49.0469 150.268 50.1162C150.546 51.1709 150.686 52.8921 150.686 55.2798V76H142.072V56.9937C142.072 54.5034 141.984 52.9653 141.809 52.3794C141.647 51.7788 141.259 51.4785 140.644 51.4785C140.014 51.4785 139.604 51.7715 139.414 52.3574C139.238 52.9434 139.15 54.4888 139.15 56.9937V76H130.537V57.4771C130.537 54.6206 130.463 52.9067 130.317 52.3354C130.185 51.7642 129.804 51.4785 129.174 51.4785C128.779 51.4785 128.442 51.6323 128.164 51.9399C127.885 52.2329 127.731 52.5991 127.702 53.0386C127.673 53.4634 127.658 54.3789 127.658 55.7852V76H119.045V46.8423H127.812ZM162.529 46.8423L162.375 49.6108C163.063 48.5122 163.884 47.6919 164.836 47.1499C165.788 46.5933 166.872 46.3149 168.088 46.3149C170.461 46.3149 172.329 47.4136 173.691 49.6108C174.438 48.5122 175.28 47.6919 176.218 47.1499C177.155 46.5933 178.195 46.3149 179.338 46.3149C180.847 46.3149 182.092 46.6812 183.073 47.4136C184.069 48.146 184.707 49.0469 184.985 50.1162C185.263 51.1709 185.402 52.8921 185.402 55.2798V76H176.789V56.9937C176.789 54.5034 176.701 52.9653 176.525 52.3794C176.364 51.7788 175.976 51.4785 175.361 51.4785C174.731 51.4785 174.321 51.7715 174.13 52.3574C173.955 52.9434 173.867 54.4888 173.867 56.9937V76H165.253V57.4771C165.253 54.6206 165.18 52.9067 165.034 52.3354C164.902 51.7642 164.521 51.4785 163.891 51.4785C163.496 51.4785 163.159 51.6323 162.88 51.9399C162.602 52.2329 162.448 52.5991 162.419 53.0386C162.39 53.4634 162.375 54.3789 162.375 55.7852V76H153.762V46.8423H162.529ZM208.583 61.9375H197.092V68.2437C197.092 69.562 197.187 70.4116 197.377 70.7925C197.568 71.1733 197.934 71.3638 198.476 71.3638C199.15 71.3638 199.597 71.1147 199.816 70.6167C200.051 70.104 200.168 69.1226 200.168 67.6724V63.8271H208.583V65.9805C208.583 67.7822 208.466 69.1665 208.232 70.1333C208.012 71.1001 207.485 72.1328 206.65 73.2314C205.815 74.3301 204.753 75.1577 203.464 75.7144C202.189 76.2563 200.585 76.5273 198.652 76.5273C196.777 76.5273 195.122 76.2563 193.686 75.7144C192.25 75.1724 191.13 74.4326 190.324 73.4951C189.533 72.543 188.984 71.5029 188.676 70.375C188.369 69.2324 188.215 67.5771 188.215 65.4092V56.9058C188.215 54.3569 188.559 52.3501 189.248 50.8853C189.936 49.4058 191.064 48.2778 192.631 47.5015C194.199 46.7104 196 46.3149 198.037 46.3149C200.527 46.3149 202.578 46.791 204.189 47.7432C205.815 48.6807 206.95 49.9331 207.595 51.5005C208.254 53.0532 208.583 55.2432 208.583 58.0703V61.9375ZM199.685 57.1914V55.0601C199.685 53.5513 199.604 52.5771 199.443 52.1377C199.282 51.6982 198.952 51.4785 198.454 51.4785C197.839 51.4785 197.458 51.6689 197.312 52.0498C197.165 52.416 197.092 53.4194 197.092 55.0601V57.1914H199.685ZM220.537 46.8423L220.383 49.5229C221.027 48.4536 221.811 47.6553 222.734 47.1279C223.671 46.5859 224.748 46.3149 225.964 46.3149C227.487 46.3149 228.732 46.6738 229.699 47.3916C230.666 48.1094 231.289 49.0176 231.567 50.1162C231.845 51.2002 231.984 53.0166 231.984 55.5654V76H223.107V55.8071C223.107 53.8003 223.042 52.5771 222.91 52.1377C222.778 51.6982 222.412 51.4785 221.811 51.4785C221.181 51.4785 220.786 51.7349 220.625 52.2476C220.463 52.7456 220.383 54.0933 220.383 56.2905V76H211.506V46.8423H220.537ZM255.253 40.4263V76H246.376V73.8906C245.527 74.7695 244.633 75.4287 243.696 75.8682C242.758 76.3076 241.777 76.5273 240.751 76.5273C239.375 76.5273 238.181 76.1685 237.17 75.4507C236.159 74.7183 235.507 73.876 235.214 72.9238C234.936 71.9717 234.797 70.4189 234.797 68.2656V54.6206C234.797 52.3794 234.936 50.79 235.214 49.8525C235.507 48.915 236.167 48.0947 237.192 47.3916C238.217 46.6738 239.44 46.3149 240.861 46.3149C241.96 46.3149 242.963 46.5127 243.872 46.9082C244.794 47.3037 245.629 47.897 246.376 48.688V40.4263H255.253ZM246.376 54.1812C246.376 53.1118 246.281 52.394 246.091 52.0278C245.915 51.6616 245.556 51.4785 245.014 51.4785C244.487 51.4785 244.128 51.647 243.938 51.9839C243.762 52.3062 243.674 53.0386 243.674 54.1812V68.4634C243.674 69.6499 243.762 70.4336 243.938 70.8145C244.113 71.1807 244.45 71.3638 244.948 71.3638C245.52 71.3638 245.9 71.1587 246.091 70.7485C246.281 70.3237 246.376 69.2983 246.376 67.6724V54.1812Z" fill="#FFD200"/>
<path d="M43.459 46.8423L45.4506 47.0254L45.6513 44.8423H43.459V46.8423ZM43.1074 50.6655L41.1158 50.4824L44.9171 51.5171L43.1074 50.6655ZM48.7104 46.3149H50.7104V44.1789L48.579 44.3193L48.7104 46.3149ZM48.7104 56.5762V58.5762H50.7104V56.5762H48.7104ZM43.7227 59.0811L45.6733 59.5227L45.675 59.5149L43.7227 59.0811ZM43.459 76V78H45.459V76H43.459ZM34.582 76H32.582V78H34.582V76ZM34.582 46.8423V44.8423H32.582V46.8423H34.582ZM41.4674 46.6591L41.1158 50.4824L45.099 50.8487L45.4506 47.0254L41.4674 46.6591ZM44.9171 51.5171C45.9822 49.2538 47.3024 48.412 48.8419 48.3106L48.579 44.3193C45.226 44.5401 42.8108 46.5988 41.2978 49.8139L44.9171 51.5171ZM46.7104 46.3149V56.5762H50.7104V46.3149H46.7104ZM48.7104 54.5762C46.9859 54.5762 45.357 54.7948 44.1295 55.503L46.1284 58.9677C46.4243 58.797 47.1831 58.5762 48.7104 58.5762V54.5762ZM44.1295 55.503C42.9285 56.1959 42.0788 57.2588 41.7703 58.6472L45.675 59.5149C45.7181 59.3213 45.8059 59.1537 46.1284 58.9677L44.1295 55.503ZM41.772 58.6394C41.5368 59.6785 41.459 61.7254 41.459 64.4863H45.459C45.459 61.5929 45.557 60.0363 45.6733 59.5227L41.772 58.6394ZM41.459 64.4863V76H45.459V64.4863H41.459ZM43.459 74H34.582V78H43.459V74ZM36.582 76V46.8423H32.582V76H36.582ZM34.582 48.8423H43.459V44.8423H34.582V48.8423ZM70.8149 61.9375V63.9375H72.8149V61.9375H70.8149ZM59.3232 61.9375V59.9375H57.3232V61.9375H59.3232ZM62.0479 70.6167L60.2289 69.7852L60.2234 69.7973L60.218 69.8094L62.0479 70.6167ZM62.3994 63.8271V61.8271H60.3994V63.8271H62.3994ZM70.8149 63.8271H72.8149V61.8271H70.8149V63.8271ZM70.4634 70.1333L68.5197 69.6621L68.5163 69.6761L68.5131 69.6901L70.4634 70.1333ZM65.6953 75.7144L66.4781 77.5549L66.4882 77.5505L65.6953 75.7144ZM52.5557 73.4951L51.0173 74.7732L51.0279 74.786L51.0388 74.7987L52.5557 73.4951ZM50.9077 70.375L48.9765 70.8949L48.9782 70.9012L50.9077 70.375ZM51.479 50.8853L53.2891 51.736L53.2923 51.7291L51.479 50.8853ZM54.8628 47.5015L55.7505 49.2937L55.7572 49.2903L55.7639 49.287L54.8628 47.5015ZM66.4204 47.7432L65.403 49.465L65.4122 49.4705L65.4214 49.4758L66.4204 47.7432ZM69.8262 51.5005L67.9765 52.2611L67.9808 52.2716L67.9852 52.282L69.8262 51.5005ZM61.916 57.1914V59.1914H63.916V57.1914H61.916ZM59.543 52.0498L61.3999 52.7926L61.4049 52.7802L61.4097 52.7678L59.543 52.0498ZM59.3232 57.1914H57.3232V59.1914H59.3232V57.1914ZM70.8149 59.9375H59.3232V63.9375H70.8149V59.9375ZM57.3232 61.9375V68.2437H61.3232V61.9375H57.3232ZM57.3232 68.2437C57.3232 68.9421 57.348 69.5654 57.4071 70.0924C57.46 70.5641 57.5596 71.166 57.82 71.6869L61.3977 69.8981C61.4454 69.9934 61.4476 70.0334 61.4321 69.9667C61.4189 69.9096 61.4002 69.8071 61.3822 69.6469C61.3461 69.3243 61.3232 68.8636 61.3232 68.2437H57.3232ZM57.82 71.6869C58.4468 72.9404 59.6538 73.3638 60.7075 73.3638V69.3638C60.6608 69.3638 60.7721 69.3545 60.9491 69.4465C61.1527 69.5524 61.3107 69.7239 61.3977 69.8981L57.82 71.6869ZM60.7075 73.3638C61.2806 73.3638 61.9209 73.2589 62.5217 72.924C63.1503 72.5736 63.6043 72.0437 63.8777 71.424L60.218 69.8094C60.2401 69.7593 60.2806 69.6878 60.3481 69.6121C60.4165 69.5354 60.4954 69.474 60.5743 69.43C60.7283 69.3442 60.8083 69.3638 60.7075 69.3638V73.3638ZM63.8668 71.4482C64.1114 70.9131 64.2298 70.2994 64.2974 69.7332C64.3686 69.1368 64.3994 68.4438 64.3994 67.6724H60.3994C60.3994 68.3512 60.3716 68.874 60.3256 69.259C60.276 69.6742 60.2186 69.8076 60.2289 69.7852L63.8668 71.4482ZM64.3994 67.6724V63.8271H60.3994V67.6724H64.3994ZM62.3994 65.8271H70.8149V61.8271H62.3994V65.8271ZM68.8149 63.8271V65.9805H72.8149V63.8271H68.8149ZM68.8149 65.9805C68.8149 67.7294 68.698 68.9265 68.5197 69.6621L72.4071 70.6045C72.6975 69.4065 72.8149 67.8351 72.8149 65.9805H68.8149ZM68.5131 69.6901C68.3763 70.292 68.0146 71.0665 67.289 72.0213L70.4737 74.4416C71.418 73.1991 72.111 71.9082 72.4136 70.5765L68.5131 69.6901ZM67.289 72.0213C66.6661 72.841 65.8814 73.4555 64.9024 73.8782L66.4882 77.5505C68.0873 76.8599 69.4267 75.8192 70.4737 74.4416L67.289 72.0213ZM64.9126 73.8739C63.9631 74.2777 62.6472 74.5273 60.8833 74.5273V78.5273C62.9866 78.5273 64.8787 78.235 66.478 77.5548L64.9126 73.8739ZM60.8833 74.5273C59.1978 74.5273 57.7898 74.2834 56.6239 73.8433L55.2111 77.5854C56.9163 78.2292 58.8188 78.5273 60.8833 78.5273V74.5273ZM56.6239 73.8433C55.4272 73.3915 54.6132 72.8207 54.0725 72.1916L51.0388 74.7987C52.1095 76.0445 53.5367 76.9533 55.2111 77.5854L56.6239 73.8433ZM54.094 72.2171C53.4747 71.4715 53.0653 70.685 52.8372 69.8488L48.9782 70.9012C49.3654 72.3209 50.0546 73.6144 51.0173 74.7732L54.094 72.2171ZM52.8389 69.8551C52.6001 68.9681 52.4463 67.5214 52.4463 65.4092H48.4463C48.4463 67.6329 48.6001 69.4968 48.9765 70.8949L52.8389 69.8551ZM52.4463 65.4092V56.9058H48.4463V65.4092H52.4463ZM52.4463 56.9058C52.4463 54.4998 52.7771 52.8253 53.2891 51.736L49.669 50.0345C48.804 51.8749 48.4463 54.214 48.4463 56.9058H52.4463ZM53.2923 51.7291C53.7747 50.6924 54.5591 49.8838 55.7505 49.2937L53.9751 45.7093C52.0317 46.6719 50.5602 48.1192 49.6657 50.0414L53.2923 51.7291ZM55.7639 49.287C57.0103 48.6579 58.4949 48.3149 60.2681 48.3149V44.3149C57.969 44.3149 55.85 44.763 53.9617 45.716L55.7639 49.287ZM60.2681 48.3149C62.5151 48.3149 64.1854 48.7456 65.403 49.465L67.4379 46.0213C65.4327 44.8364 63.0015 44.3149 60.2681 44.3149V48.3149ZM65.4214 49.4758C66.7077 50.2174 67.5184 51.1471 67.9765 52.2611L71.6759 50.7399C70.8449 48.7191 69.3851 47.1439 67.4194 46.0105L65.4214 49.4758ZM67.9852 52.282C68.4917 53.4752 68.8149 55.3544 68.8149 58.0703H72.8149C72.8149 55.1319 72.479 52.6312 71.6671 50.7189L67.9852 52.282ZM68.8149 58.0703V61.9375H72.8149V58.0703H68.8149ZM63.916 57.1914V55.0601H59.916V57.1914H63.916ZM63.916 55.0601C63.916 54.2767 63.8953 53.5959 63.8488 53.033C63.8061 52.5172 63.7308 51.9366 63.5521 51.4492L59.7966 52.8262C59.779 52.7782 59.8245 52.9044 59.8624 53.3627C59.8964 53.774 59.916 54.3346 59.916 55.0601H63.916ZM63.5521 51.4492C63.3527 50.9055 62.9944 50.365 62.4157 49.9792C61.8469 49.6 61.2278 49.4785 60.6855 49.4785V53.4785C60.6413 53.4785 60.436 53.4668 60.1969 53.3074C59.9477 53.1413 59.8348 52.9304 59.7966 52.8262L63.5521 51.4492ZM60.6855 49.4785C59.7332 49.4785 58.2637 49.8047 57.6763 51.3318L61.4097 52.7678C61.3601 52.8967 61.2805 53.0328 61.1664 53.1564C61.0533 53.2789 60.9333 53.36 60.8329 53.4102C60.65 53.5016 60.5601 53.4785 60.6855 53.4785V49.4785ZM57.686 51.307C57.4835 51.8133 57.4189 52.4463 57.3835 52.9314C57.3418 53.5021 57.3232 54.2173 57.3232 55.0601H61.3232C61.3232 54.2622 61.3413 53.6554 61.3729 53.2226C61.3887 53.006 61.4063 52.8562 61.4216 52.7607C61.4404 52.6434 61.4444 52.6813 61.3999 52.7926L57.686 51.307ZM57.3232 55.0601V57.1914H61.3232V55.0601H57.3232ZM59.3232 59.1914H61.916V55.1914H59.3232V59.1914ZM93.3589 57.8506V59.8506H95.3589V57.8506H93.3589ZM84.9873 57.8506H82.9873V59.8506H84.9873V57.8506ZM84.7017 52.1157L82.8766 52.9338L82.8821 52.9459L82.8876 52.9579L84.7017 52.1157ZM82.7461 70.5947L80.9572 71.4892L80.9623 71.4993L80.9675 71.5094L82.7461 70.5947ZM85.1191 70.5508L83.2657 69.7994L83.2569 69.8211L83.2486 69.843L85.1191 70.5508ZM85.4487 64.0029V62.0029H83.4487V64.0029H85.4487ZM93.3589 64.0029L95.3588 64.0155L95.3715 62.0029H93.3589V64.0029ZM93.0952 69.2544L91.1139 68.982L91.1124 68.9926L91.111 69.0032L93.0952 69.2544ZM91.623 72.8359L89.9681 71.7129L89.9651 71.7173L91.623 72.8359ZM88.3931 75.6045L89.2312 77.4204L89.2394 77.4166L89.2475 77.4128L88.3931 75.6045ZM77.4946 75.2529L76.4783 76.9755L76.4847 76.9793L76.4912 76.983L77.4946 75.2529ZM74.3745 71.6494L72.5092 72.3709L72.5133 72.3816L72.5176 72.3922L74.3745 71.6494ZM77.4067 47.8091L78.4403 49.5214L78.4515 49.5145L77.4067 47.8091ZM93.3589 55.8506H84.9873V59.8506H93.3589V55.8506ZM86.9873 57.8506V54.4888H82.9873V57.8506H86.9873ZM86.9873 54.4888C86.9873 53.8564 86.962 53.2798 86.9016 52.7776C86.8449 52.3067 86.7424 51.7617 86.5157 51.2735L82.8876 52.9579C82.8514 52.8799 82.8917 52.9355 82.9302 53.2556C82.965 53.5444 82.9873 53.9493 82.9873 54.4888H86.9873ZM86.5267 51.2976C86.288 50.7651 85.8988 50.27 85.3294 49.926C84.7727 49.5897 84.1781 49.4785 83.647 49.4785V53.4785C83.6286 53.4785 83.466 53.4736 83.2609 53.3496C83.043 53.218 82.9249 53.0415 82.8766 52.9338L86.5267 51.2976ZM83.647 49.4785C83.1626 49.4785 82.603 49.5639 82.065 49.8501C81.4999 50.1507 81.0754 50.6119 80.8112 51.1624L84.4173 52.8933C84.3289 53.0775 84.1644 53.2641 83.9435 53.3816C83.7498 53.4846 83.6186 53.4785 83.647 53.4785V49.4785ZM80.8112 51.1624C80.568 51.6691 80.4764 52.252 80.4279 52.7047C80.3735 53.2127 80.3506 53.8142 80.3506 54.4888H84.3506C84.3506 53.8889 84.3717 53.4431 84.4051 53.1308C84.4217 52.9757 84.4391 52.8765 84.4513 52.8215C84.4657 52.7565 84.4633 52.7974 84.4173 52.8933L80.8112 51.1624ZM80.3506 54.4888V68.2437H84.3506V54.4888H80.3506ZM80.3506 68.2437C80.3506 69.3911 80.4859 70.5466 80.9572 71.4892L84.5349 69.7003C84.4789 69.5882 84.3506 69.1762 84.3506 68.2437H80.3506ZM80.9675 71.5094C81.2192 71.9988 81.5914 72.4829 82.1329 72.8404C82.687 73.2064 83.304 73.3638 83.9106 73.3638V69.3638C84.0046 69.3638 84.1711 69.393 84.3371 69.5026C84.4904 69.6038 84.5366 69.7033 84.5247 69.68L80.9675 71.5094ZM83.9106 73.3638C84.5138 73.3638 85.1774 73.2251 85.7796 72.82C86.3873 72.4111 86.7695 71.8405 86.9897 71.2586L83.2486 69.843C83.2637 69.8031 83.3419 69.6389 83.5469 69.5011C83.7462 69.367 83.9081 69.3638 83.9106 69.3638V73.3638ZM86.9726 71.3022C87.3574 70.3532 87.4487 68.9567 87.4487 67.4746H83.4487C83.4487 68.1872 83.4225 68.7444 83.3777 69.1622C83.3555 69.3697 83.3303 69.5273 83.3061 69.6421C83.2811 69.7611 83.2631 69.8057 83.2657 69.7994L86.9726 71.3022ZM87.4487 67.4746V64.0029H83.4487V67.4746H87.4487ZM85.4487 66.0029H93.3589V62.0029H85.4487V66.0029ZM91.3589 63.9904C91.3444 66.2987 91.2567 67.9434 91.1139 68.982L95.0766 69.5268C95.256 68.2216 95.3441 66.3653 95.3588 64.0155L91.3589 63.9904ZM91.111 69.0032C91.0135 69.774 90.6734 70.6735 89.9681 71.7129L93.278 73.9589C94.2426 72.5374 94.884 71.0492 95.0794 69.5056L91.111 69.0032ZM89.9651 71.7173C89.3469 72.6336 88.5485 73.319 87.5386 73.7962L89.2475 77.4128C90.9037 76.6302 92.2586 75.4699 93.281 73.9545L89.9651 71.7173ZM87.555 73.7886C86.5575 74.2489 85.2154 74.5273 83.4492 74.5273V78.5273C85.6089 78.5273 87.5626 78.1905 89.2312 77.4204L87.555 73.7886ZM83.4492 74.5273C81.1395 74.5273 79.546 74.1307 78.4981 73.5229L76.4912 76.983C78.373 78.0744 80.7492 78.5273 83.4492 78.5273V74.5273ZM78.5109 73.5304C77.4159 72.8843 76.6778 72.0225 76.2315 70.9066L72.5176 72.3922C73.3017 74.3525 74.6436 75.893 76.4783 76.9755L78.5109 73.5304ZM76.2398 70.9279C75.7697 69.7124 75.4736 67.802 75.4736 65.0576H71.4736C71.4736 67.9968 71.7782 70.4809 72.5092 72.3709L76.2398 70.9279ZM75.4736 65.0576V56.7739H71.4736V65.0576H75.4736ZM75.4736 56.7739C75.4736 54.3769 75.7226 52.8119 76.0806 51.9062L72.3608 50.4356C71.7227 52.0494 71.4736 54.2198 71.4736 56.7739H75.4736ZM76.0806 51.9062C76.3641 51.1891 77.042 50.3653 78.4403 49.5213L76.3732 46.0968C74.5195 47.2157 73.0734 48.6331 72.3608 50.4356L76.0806 51.9062ZM78.4515 49.5145C79.7 48.7497 81.2973 48.3149 83.3394 48.3149V44.3149C80.7232 44.3149 78.3655 44.8763 76.362 46.1037L78.4515 49.5145ZM83.3394 48.3149C85.3685 48.3149 86.9744 48.7432 88.2452 49.5034L90.2987 46.0708C88.2883 44.8681 85.9391 44.3149 83.3394 44.3149V48.3149ZM88.2452 49.5034C89.574 50.2984 90.3109 51.2042 90.6658 52.1825L94.426 50.8185C93.6969 48.8085 92.2511 47.2387 90.2987 46.0708L88.2452 49.5034ZM90.6658 52.1825C91.0911 53.355 91.3589 55.2009 91.3589 57.8506H95.3589C95.3589 55.0218 95.0847 52.6342 94.426 50.8185L90.6658 52.1825ZM115.705 70.0015L117.66 70.4253L117.661 70.4205L115.705 70.0015ZM114.013 73.4292L115.56 74.6969L115.569 74.6864L114.013 73.4292ZM110.673 75.7803L111.367 77.6563L111.378 77.6521L110.673 75.7803ZM101.027 75.8901L100.413 77.7936L100.423 77.7966L100.432 77.7995L101.027 75.8901ZM97.8413 73.9346L96.3174 75.2299L96.329 75.2435L96.3409 75.257L97.8413 73.9346ZM96.2373 70.7705L94.3011 71.2716L94.3026 71.2772L96.2373 70.7705ZM110.761 47.2158L109.983 49.058L109.994 49.0628L110.005 49.0675L110.761 47.2158ZM115.661 52.4673L113.733 52.9982L113.736 53.0112L113.74 53.0241L115.661 52.4673ZM106.982 52.0718L105.13 52.8264L105.135 52.8387L105.14 52.8511L106.982 52.0718ZM104.895 52.0718L106.71 52.9099L106.716 52.897L106.722 52.8841L104.895 52.0718ZM104.895 70.7485L103.046 71.5132L103.051 71.5248L103.056 71.5364L104.895 70.7485ZM106.96 70.7925L105.144 69.9544L105.131 69.9836L105.118 70.0132L106.96 70.7925ZM114.101 57.0815V64.2227H118.101V57.0815H114.101ZM114.101 64.2227C114.101 66.8212 113.966 68.5701 113.749 69.5824L117.661 70.4205C117.971 68.9719 118.101 66.8683 118.101 64.2227H114.101ZM113.751 69.5776C113.56 70.4573 113.147 71.3196 112.458 72.172L115.569 74.6864C116.608 73.4001 117.323 71.9772 117.66 70.4253L113.751 69.5776ZM112.466 72.1616C111.84 72.9259 111.025 73.5109 109.969 73.9084L111.378 77.6521C113.046 77.0242 114.458 76.0419 115.56 74.6968L112.466 72.1616ZM109.98 73.9043C108.898 74.3043 107.587 74.5273 106.015 74.5273V78.5273C107.958 78.5273 109.754 78.2524 111.367 77.6563L109.98 73.9043ZM106.015 74.5273C104.184 74.5273 102.735 74.3277 101.623 73.9808L100.432 77.7995C102.044 78.3022 103.92 78.5273 106.015 78.5273V74.5273ZM101.641 73.9867C100.539 73.6311 99.8142 73.1483 99.3417 72.6122L96.3409 75.257C97.3918 76.4494 98.7911 77.2703 100.413 77.7936L101.641 73.9867ZM99.3652 72.6393C98.8318 72.0117 98.4262 71.2341 98.172 70.2638L94.3026 71.2772C94.693 72.7679 95.3567 74.0996 96.3174 75.2299L99.3652 72.6393ZM98.1735 70.2694C97.9164 69.2761 97.7539 67.6212 97.7539 65.1895H93.7539C93.7539 67.7089 93.9137 69.7747 94.3011 71.2716L98.1735 70.2694ZM97.7539 65.1895V57.7188H93.7539V65.1895H97.7539ZM97.7539 57.7188C97.7539 55.1139 98.0409 53.2789 98.4995 52.0866L94.7661 50.6507C94.0528 52.5053 93.7539 54.9037 93.7539 57.7188H97.7539ZM98.4995 52.0866C98.9115 51.0153 99.6521 50.1252 100.833 49.4098L98.7606 45.9886C96.8948 47.1189 95.526 48.6751 94.7661 50.6507L98.4995 52.0866ZM100.833 49.4098C101.957 48.7293 103.516 48.3149 105.642 48.3149V44.3149C103.021 44.3149 100.684 44.8235 98.7606 45.9886L100.833 49.4098ZM105.642 48.3149C107.441 48.3149 108.869 48.5871 109.983 49.058L111.54 45.3736C109.812 44.6433 107.827 44.3149 105.642 44.3149V48.3149ZM110.005 49.0675C111.211 49.5595 112.012 50.1533 112.529 50.7868L115.629 48.2591C114.593 46.9883 113.183 46.044 111.517 45.3641L110.005 49.0675ZM112.529 50.7868C113.16 51.5602 113.54 52.2975 113.733 52.9982L117.589 51.9363C117.226 50.6156 116.551 49.39 115.629 48.2591L112.529 50.7868ZM113.74 53.0241C113.952 53.754 114.101 55.0602 114.101 57.0815H118.101C118.101 54.972 117.956 53.2021 117.582 51.9105L113.74 53.0241ZM109.224 54.8843C109.224 54.109 109.203 53.438 109.156 52.8893C109.115 52.4092 109.039 51.7999 108.824 51.2925L105.14 52.8511C105.099 52.7551 105.103 52.7246 105.12 52.8224C105.136 52.9052 105.154 53.0377 105.171 53.2318C105.204 53.6206 105.224 54.1654 105.224 54.8843H109.224ZM108.834 51.3172C108.599 50.74 108.188 50.2308 107.599 49.8926C107.04 49.5716 106.451 49.4785 105.949 49.4785V53.4785C105.974 53.4785 105.821 53.4844 105.607 53.361C105.362 53.2206 105.204 53.008 105.13 52.8264L108.834 51.3172ZM105.949 49.4785C105.445 49.4785 104.863 49.5724 104.31 49.8837C103.73 50.2094 103.316 50.6989 103.067 51.2595L106.722 52.8841C106.649 53.0492 106.498 53.242 106.271 53.37C106.069 53.4835 105.926 53.4785 105.949 53.4785V49.4785ZM103.079 51.2337C102.836 51.7598 102.751 52.3898 102.706 52.8739C102.653 53.4297 102.631 54.1064 102.631 54.8843H106.631C106.631 54.168 106.652 53.6289 106.688 53.2472C106.706 53.0568 106.725 52.93 106.74 52.854C106.759 52.7628 106.759 52.8038 106.71 52.9099L103.079 51.2337ZM102.631 54.8843V68.0459H106.631V54.8843H102.631ZM102.631 68.0459C102.631 68.7696 102.654 69.4095 102.706 69.9485C102.755 70.4439 102.841 71.0177 103.046 71.5132L106.743 69.9838C106.772 70.0545 106.727 69.9655 106.687 69.5601C106.652 69.1981 106.631 68.6992 106.631 68.0459H102.631ZM103.056 71.5364C103.291 72.0836 103.685 72.5849 104.261 72.9282C104.818 73.26 105.41 73.3638 105.927 73.3638V69.3638C105.932 69.3638 106.095 69.365 106.308 69.4918C106.54 69.6299 106.674 69.8236 106.733 69.9607L103.056 71.5364ZM105.927 73.3638C106.419 73.3638 106.997 73.2766 107.549 72.971C108.134 72.6475 108.557 72.1518 108.802 71.5718L105.118 70.0132C105.202 69.814 105.372 69.604 105.613 69.4709C105.821 69.3558 105.963 69.3638 105.927 69.3638V73.3638ZM108.776 71.6306C109.006 71.1328 109.097 70.5641 109.146 70.1047C109.201 69.5972 109.224 68.9998 109.224 68.3315H105.224C105.224 68.9231 105.203 69.3656 105.169 69.6785C105.152 69.8339 105.135 69.936 105.122 69.9956C105.107 70.0636 105.107 70.0355 105.144 69.9544L108.776 71.6306ZM109.224 68.3315V54.8843H105.224V68.3315H109.224ZM127.812 46.8423L129.809 46.9532L129.926 44.8423H127.812V46.8423ZM127.658 49.6108L125.661 49.4999L129.353 50.6729L127.658 49.6108ZM130.119 47.1499L131.109 48.888L131.119 48.8823L131.129 48.8765L130.119 47.1499ZM138.974 49.6108L137.274 50.6647L138.897 53.2815L140.628 50.7355L138.974 49.6108ZM141.501 47.1499L142.502 48.8814L142.512 48.8756L142.522 48.8696L141.501 47.1499ZM148.356 47.4136L147.16 49.0164L147.166 49.0207L147.172 49.0249L148.356 47.4136ZM150.268 50.1162L148.333 50.62L148.334 50.6265L150.268 50.1162ZM150.686 76V78H152.686V76H150.686ZM142.072 76H140.072V78H142.072V76ZM141.809 52.3794L139.877 52.8977L139.885 52.926L139.893 52.9541L141.809 52.3794ZM139.414 52.3574L137.512 51.7392L137.504 51.7609L137.498 51.7827L139.414 52.3574ZM139.15 76V78H141.15V76H139.15ZM130.537 76H128.537V78H130.537V76ZM130.317 52.3354L128.368 52.7852L128.374 52.8088L128.38 52.8322L130.317 52.3354ZM128.164 51.9399L129.614 53.3174L129.63 53.2998L129.647 53.2818L128.164 51.9399ZM127.702 53.0386L129.697 53.1762L129.698 53.1716L127.702 53.0386ZM127.658 76V78H129.658V76H127.658ZM119.045 76H117.045V78H119.045V76ZM119.045 46.8423V44.8423H117.045V46.8423H119.045ZM125.815 46.7313L125.661 49.4999L129.655 49.7218L129.809 46.9532L125.815 46.7313ZM129.353 50.6729C129.898 49.8031 130.492 49.2389 131.109 48.888L129.13 45.4118C127.842 46.1449 126.795 47.2213 125.963 48.5488L129.353 50.6729ZM131.129 48.8765C131.744 48.5168 132.473 48.3149 133.371 48.3149V44.3149C131.838 44.3149 130.399 44.6697 129.11 45.4233L131.129 48.8765ZM133.371 48.3149C134.981 48.3149 136.238 48.9926 137.274 50.6647L140.674 48.557C138.986 45.8346 136.507 44.3149 133.371 44.3149V48.3149ZM140.628 50.7355C141.243 49.8303 141.877 49.2425 142.502 48.8814L140.5 45.4184C139.25 46.1413 138.199 47.1941 137.32 48.4862L140.628 50.7355ZM142.522 48.8696C143.135 48.5054 143.82 48.3149 144.621 48.3149V44.3149C143.137 44.3149 141.741 44.6811 140.48 45.4302L142.522 48.8696ZM144.621 48.3149C145.801 48.3149 146.598 48.5968 147.16 49.0164L149.553 45.8107C148.152 44.7655 146.459 44.3149 144.621 44.3149V48.3149ZM147.172 49.0249C147.844 49.5196 148.184 50.0481 148.333 50.62L152.204 49.6124C151.796 48.0457 150.861 46.7724 149.541 45.8023L147.172 49.0249ZM148.334 50.6265C148.542 51.4125 148.686 52.9102 148.686 55.2798H152.686C152.686 52.874 152.551 50.9293 152.202 49.6059L148.334 50.6265ZM148.686 55.2798V76H152.686V55.2798H148.686ZM150.686 74H142.072V78H150.686V74ZM144.072 76V56.9937H140.072V76H144.072ZM144.072 56.9937C144.072 55.7305 144.05 54.6812 144.003 53.8583C143.96 53.0984 143.888 52.3499 143.724 51.8047L139.893 52.9541C139.889 52.9425 139.911 53.0202 139.939 53.2438C139.965 53.4509 139.989 53.7288 140.01 54.0865C140.05 54.8018 140.072 55.7665 140.072 56.9937H144.072ZM143.74 51.8611C143.577 51.2526 143.243 50.6039 142.62 50.1218C141.995 49.6381 141.28 49.4785 140.644 49.4785V53.4785C140.623 53.4785 140.41 53.469 140.173 53.2856C139.938 53.1039 139.879 52.9056 139.877 52.8977L143.74 51.8611ZM140.644 49.4785C140.017 49.4785 139.322 49.6274 138.702 50.0708C138.077 50.517 137.709 51.1317 137.512 51.7392L141.316 52.9756C141.309 52.9972 141.241 53.1725 141.026 53.3257C140.816 53.4762 140.641 53.4785 140.644 53.4785V49.4785ZM137.498 51.7827C137.334 52.3285 137.262 53.0797 137.219 53.8424C137.172 54.6687 137.15 55.7233 137.15 56.9937H141.15C141.15 55.7591 141.172 54.7886 141.213 54.0695C141.233 53.7098 141.257 53.4305 141.283 53.2223C141.311 52.9975 141.333 52.9199 141.329 52.9321L137.498 51.7827ZM137.15 56.9937V76H141.15V56.9937H137.15ZM139.15 74H130.537V78H139.15V74ZM132.537 76V57.4771H128.537V76H132.537ZM132.537 57.4771C132.537 56.0363 132.518 54.8617 132.48 53.9639C132.445 53.138 132.388 52.3591 132.254 51.8387L128.38 52.8322C128.377 52.8205 128.397 52.9098 128.422 53.1696C128.445 53.4073 128.466 53.7262 128.484 54.1347C128.518 54.9508 128.537 56.0613 128.537 57.4771H132.537ZM132.266 51.8857C132.119 51.2505 131.782 50.5798 131.132 50.0927C130.499 49.6176 129.783 49.4785 129.174 49.4785V53.4785C129.196 53.4785 128.985 53.4822 128.732 53.2927C128.464 53.0913 128.383 52.8491 128.368 52.7852L132.266 51.8857ZM129.174 49.4785C128.183 49.4785 127.317 49.8946 126.681 50.5981L129.647 53.2818C129.625 53.3056 129.563 53.3642 129.456 53.4132C129.346 53.4633 129.243 53.4785 129.174 53.4785V49.4785ZM126.714 50.5624C126.084 51.2251 125.764 52.0452 125.707 52.9055L129.698 53.1716C129.699 53.1488 129.701 53.167 129.683 53.2088C129.665 53.2528 129.638 53.2915 129.614 53.3174L126.714 50.5624ZM125.707 52.901C125.672 53.4075 125.658 54.3953 125.658 55.7852H129.658C129.658 54.3625 129.674 53.5193 129.697 53.1762L125.707 52.901ZM125.658 55.7852V76H129.658V55.7852H125.658ZM127.658 74H119.045V78H127.658V74ZM121.045 76V46.8423H117.045V76H121.045ZM119.045 48.8423H127.812V44.8423H119.045V48.8423ZM162.529 46.8423L164.526 46.9532L164.643 44.8423H162.529V46.8423ZM162.375 49.6108L160.378 49.4999L164.07 50.6729L162.375 49.6108ZM164.836 47.1499L165.825 48.888L165.835 48.8823L165.845 48.8765L164.836 47.1499ZM173.691 49.6108L171.991 50.6647L173.613 53.2815L175.345 50.7355L173.691 49.6108ZM176.218 47.1499L177.219 48.8814L177.229 48.8756L177.239 48.8696L176.218 47.1499ZM183.073 47.4136L181.877 49.0164L181.883 49.0207L181.888 49.0249L183.073 47.4136ZM184.985 50.1162L183.049 50.62L183.051 50.6265L184.985 50.1162ZM185.402 76V78H187.402V76H185.402ZM176.789 76H174.789V78H176.789V76ZM176.525 52.3794L174.594 52.8977L174.601 52.926L174.61 52.9541L176.525 52.3794ZM174.13 52.3574L172.228 51.7392L172.221 51.7609L172.215 51.7827L174.13 52.3574ZM173.867 76V78H175.867V76H173.867ZM165.253 76H163.253V78H165.253V76ZM165.034 52.3354L163.085 52.7852L163.09 52.8088L163.096 52.8322L165.034 52.3354ZM162.88 51.9399L164.33 53.3174L164.347 53.2998L164.363 53.2818L162.88 51.9399ZM162.419 53.0386L164.414 53.1762L164.415 53.1716L162.419 53.0386ZM162.375 76V78H164.375V76H162.375ZM153.762 76H151.762V78H153.762V76ZM153.762 46.8423V44.8423H151.762V46.8423H153.762ZM160.532 46.7313L160.378 49.4999L164.372 49.7218L164.526 46.9532L160.532 46.7313ZM164.07 50.6729C164.615 49.8031 165.209 49.2389 165.825 48.888L163.847 45.4118C162.559 46.1449 161.512 47.2213 160.68 48.5488L164.07 50.6729ZM165.845 48.8765C166.461 48.5168 167.19 48.3149 168.088 48.3149V44.3149C166.555 44.3149 165.116 44.6697 163.827 45.4233L165.845 48.8765ZM168.088 48.3149C169.698 48.3149 170.954 48.9926 171.991 50.6647L175.391 48.557C173.703 45.8346 171.224 44.3149 168.088 44.3149V48.3149ZM175.345 50.7355C175.96 49.8303 176.594 49.2425 177.219 48.8814L175.217 45.4184C173.966 46.1413 172.916 47.1941 172.037 48.4862L175.345 50.7355ZM177.239 48.8696C177.852 48.5054 178.537 48.3149 179.338 48.3149V44.3149C177.854 44.3149 176.458 44.6811 175.197 45.4302L177.239 48.8696ZM179.338 48.3149C180.518 48.3149 181.315 48.5968 181.877 49.0164L184.269 45.8107C182.869 44.7655 181.176 44.3149 179.338 44.3149V48.3149ZM181.888 49.0249C182.561 49.5196 182.9 50.0481 183.049 50.62L186.92 49.6124C186.513 48.0457 185.577 46.7724 184.258 45.8023L181.888 49.0249ZM183.051 50.6265C183.258 51.4125 183.402 52.9102 183.402 55.2798H187.402C187.402 52.874 187.268 50.9293 186.919 49.6059L183.051 50.6265ZM183.402 55.2798V76H187.402V55.2798H183.402ZM185.402 74H176.789V78H185.402V74ZM178.789 76V56.9937H174.789V76H178.789ZM178.789 56.9937C178.789 55.7305 178.767 54.6812 178.72 53.8583C178.676 53.0984 178.605 52.3499 178.441 51.8047L174.61 52.9541C174.606 52.9425 174.628 53.0202 174.656 53.2438C174.682 53.4509 174.706 53.7288 174.726 54.0865C174.767 54.8018 174.789 55.7665 174.789 56.9937H178.789ZM178.457 51.8611C178.294 51.2526 177.96 50.6039 177.337 50.1218C176.712 49.6381 175.997 49.4785 175.361 49.4785V53.4785C175.34 53.4785 175.127 53.469 174.89 53.2856C174.655 53.1039 174.596 52.9056 174.594 52.8977L178.457 51.8611ZM175.361 49.4785C174.734 49.4785 174.039 49.6274 173.418 50.0708C172.794 50.517 172.426 51.1317 172.228 51.7392L176.032 52.9756C176.025 52.9972 175.958 53.1725 175.743 53.3257C175.533 53.4762 175.358 53.4785 175.361 53.4785V49.4785ZM172.215 51.7827C172.051 52.3285 171.979 53.0797 171.936 53.8424C171.889 54.6687 171.867 55.7233 171.867 56.9937H175.867C175.867 55.7591 175.888 54.7886 175.929 54.0695C175.95 53.7098 175.974 53.4305 176 53.2223C176.028 52.9975 176.05 52.9199 176.046 52.9321L172.215 51.7827ZM171.867 56.9937V76H175.867V56.9937H171.867ZM173.867 74H165.253V78H173.867V74ZM167.253 76V57.4771H163.253V76H167.253ZM167.253 57.4771C167.253 56.0363 167.235 54.8617 167.197 53.9639C167.161 53.138 167.104 52.3591 166.971 51.8387L163.096 52.8322C163.093 52.8205 163.114 52.9098 163.139 53.1696C163.162 53.4073 163.183 53.7262 163.2 54.1347C163.235 54.9508 163.253 56.0613 163.253 57.4771H167.253ZM166.982 51.8857C166.836 51.2505 166.499 50.5798 165.849 50.0927C165.216 49.6176 164.5 49.4785 163.891 49.4785V53.4785C163.913 53.4785 163.702 53.4822 163.449 53.2927C163.181 53.0913 163.1 52.8491 163.085 52.7852L166.982 51.8857ZM163.891 49.4785C162.9 49.4785 162.034 49.8946 161.397 50.5981L164.363 53.2818C164.342 53.3056 164.28 53.3642 164.172 53.4132C164.063 53.4633 163.96 53.4785 163.891 53.4785V49.4785ZM161.43 50.5624C160.801 51.2251 160.481 52.0452 160.423 52.9055L164.415 53.1716C164.416 53.1488 164.418 53.167 164.4 53.2088C164.382 53.2528 164.355 53.2915 164.33 53.3174L161.43 50.5624ZM160.424 52.901C160.389 53.4075 160.375 54.3953 160.375 55.7852H164.375C164.375 54.3625 164.391 53.5193 164.414 53.1762L160.424 52.901ZM160.375 55.7852V76H164.375V55.7852H160.375ZM162.375 74H153.762V78H162.375V74ZM155.762 76V46.8423H151.762V76H155.762ZM153.762 48.8423H162.529V44.8423H153.762V48.8423ZM208.583 61.9375V63.9375H210.583V61.9375H208.583ZM197.092 61.9375V59.9375H195.092V61.9375H197.092ZM199.816 70.6167L197.997 69.7852L197.992 69.7973L197.987 69.8094L199.816 70.6167ZM200.168 63.8271V61.8271H198.168V63.8271H200.168ZM208.583 63.8271H210.583V61.8271H208.583V63.8271ZM208.232 70.1333L206.288 69.6621L206.285 69.6761L206.282 69.6901L208.232 70.1333ZM203.464 75.7144L204.247 77.5549L204.257 77.5505L203.464 75.7144ZM190.324 73.4951L188.786 74.7732L188.797 74.786L188.807 74.7987L190.324 73.4951ZM188.676 70.375L186.745 70.8949L186.747 70.9012L188.676 70.375ZM189.248 50.8853L191.058 51.736L191.061 51.7291L189.248 50.8853ZM192.631 47.5015L193.519 49.2937L193.526 49.2903L193.532 49.287L192.631 47.5015ZM204.189 47.7432L203.172 49.465L203.181 49.4705L203.19 49.4758L204.189 47.7432ZM207.595 51.5005L205.745 52.2611L205.749 52.2716L205.754 52.282L207.595 51.5005ZM199.685 57.1914V59.1914H201.685V57.1914H199.685ZM197.312 52.0498L199.168 52.7926L199.173 52.7802L199.178 52.7678L197.312 52.0498ZM197.092 57.1914H195.092V59.1914H197.092V57.1914ZM208.583 59.9375H197.092V63.9375H208.583V59.9375ZM195.092 61.9375V68.2437H199.092V61.9375H195.092ZM195.092 68.2437C195.092 68.9421 195.117 69.5654 195.176 70.0924C195.229 70.5641 195.328 71.166 195.589 71.6869L199.166 69.8981C199.214 69.9934 199.216 70.0334 199.201 69.9667C199.187 69.9096 199.169 69.8071 199.151 69.6469C199.115 69.3243 199.092 68.8636 199.092 68.2437H195.092ZM195.589 71.6869C196.215 72.9404 197.422 73.3638 198.476 73.3638V69.3638C198.429 69.3638 198.541 69.3545 198.718 69.4465C198.921 69.5524 199.079 69.7239 199.166 69.8981L195.589 71.6869ZM198.476 73.3638C199.049 73.3638 199.689 73.2589 200.29 72.924C200.919 72.5736 201.373 72.0437 201.646 71.424L197.987 69.8094C198.009 69.7593 198.049 69.6878 198.117 69.6121C198.185 69.5354 198.264 69.474 198.343 69.43C198.497 69.3442 198.577 69.3638 198.476 69.3638V73.3638ZM201.635 71.4482C201.88 70.9131 201.998 70.2994 202.066 69.7332C202.137 69.1368 202.168 68.4438 202.168 67.6724H198.168C198.168 68.3512 198.14 68.874 198.094 69.259C198.045 69.6742 197.987 69.8076 197.997 69.7852L201.635 71.4482ZM202.168 67.6724V63.8271H198.168V67.6724H202.168ZM200.168 65.8271H208.583V61.8271H200.168V65.8271ZM206.583 63.8271V65.9805H210.583V63.8271H206.583ZM206.583 65.9805C206.583 67.7294 206.467 68.9265 206.288 69.6621L210.176 70.6045C210.466 69.4065 210.583 67.8351 210.583 65.9805H206.583ZM206.282 69.6901C206.145 70.292 205.783 71.0665 205.058 72.0213L208.242 74.4416C209.187 73.1991 209.88 71.9082 210.182 70.5765L206.282 69.6901ZM205.058 72.0213C204.435 72.841 203.65 73.4555 202.671 73.8782L204.257 77.5505C205.856 76.8599 207.195 75.8192 208.242 74.4416L205.058 72.0213ZM202.681 73.8739C201.732 74.2777 200.416 74.5273 198.652 74.5273V78.5273C200.755 78.5273 202.647 78.235 204.247 77.5548L202.681 73.8739ZM198.652 74.5273C196.966 74.5273 195.558 74.2834 194.392 73.8433L192.98 77.5854C194.685 78.2292 196.587 78.5273 198.652 78.5273V74.5273ZM194.392 73.8433C193.196 73.3915 192.382 72.8207 191.841 72.1916L188.807 74.7987C189.878 76.0445 191.305 76.9533 192.98 77.5854L194.392 73.8433ZM191.863 72.2171C191.243 71.4715 190.834 70.685 190.606 69.8488L186.747 70.9012C187.134 72.3209 187.823 73.6144 188.786 74.7732L191.863 72.2171ZM190.608 69.8551C190.369 68.9681 190.215 67.5214 190.215 65.4092H186.215C186.215 67.6329 186.369 69.4968 186.745 70.8949L190.608 69.8551ZM190.215 65.4092V56.9058H186.215V65.4092H190.215ZM190.215 56.9058C190.215 54.4998 190.546 52.8253 191.058 51.736L187.438 50.0345C186.573 51.8749 186.215 54.214 186.215 56.9058H190.215ZM191.061 51.7291C191.543 50.6924 192.328 49.8838 193.519 49.2937L191.744 45.7093C189.8 46.6719 188.329 48.1192 187.434 50.0414L191.061 51.7291ZM193.532 49.287C194.779 48.6579 196.263 48.3149 198.037 48.3149V44.3149C195.738 44.3149 193.619 44.763 191.73 45.716L193.532 49.287ZM198.037 48.3149C200.284 48.3149 201.954 48.7456 203.172 49.465L205.206 46.0213C203.201 44.8364 200.77 44.3149 198.037 44.3149V48.3149ZM203.19 49.4758C204.476 50.2174 205.287 51.1471 205.745 52.2611L209.444 50.7399C208.613 48.7191 207.154 47.1439 205.188 46.0105L203.19 49.4758ZM205.754 52.282C206.26 53.4752 206.583 55.3544 206.583 58.0703H210.583C210.583 55.1319 210.248 52.6312 209.436 50.7189L205.754 52.282ZM206.583 58.0703V61.9375H210.583V58.0703H206.583ZM201.685 57.1914V55.0601H197.685V57.1914H201.685ZM201.685 55.0601C201.685 54.2767 201.664 53.5959 201.617 53.033C201.575 52.5172 201.499 51.9366 201.321 51.4492L197.565 52.8262C197.548 52.7782 197.593 52.9044 197.631 53.3627C197.665 53.774 197.685 54.3346 197.685 55.0601H201.685ZM201.321 51.4492C201.121 50.9055 200.763 50.365 200.184 49.9792C199.615 49.6 198.996 49.4785 198.454 49.4785V53.4785C198.41 53.4785 198.205 53.4668 197.965 53.3074C197.716 53.1413 197.603 52.9304 197.565 52.8262L201.321 51.4492ZM198.454 49.4785C197.502 49.4785 196.032 49.8047 195.445 51.3318L199.178 52.7678C199.129 52.8967 199.049 53.0328 198.935 53.1564C198.822 53.2789 198.702 53.36 198.601 53.4102C198.419 53.5016 198.329 53.4785 198.454 53.4785V49.4785ZM195.455 51.307C195.252 51.8133 195.187 52.4463 195.152 52.9314C195.11 53.5021 195.092 54.2173 195.092 55.0601H199.092C199.092 54.2622 199.11 53.6554 199.141 53.2226C199.157 53.006 199.175 52.8562 199.19 52.7607C199.209 52.6434 199.213 52.6813 199.168 52.7926L195.455 51.307ZM195.092 55.0601V57.1914H199.092V55.0601H195.092ZM197.092 59.1914H199.685V55.1914H197.092V59.1914ZM220.537 46.8423L222.533 46.9569L222.655 44.8423H220.537V46.8423ZM220.383 49.5229L218.386 49.4084L222.096 50.5554L220.383 49.5229ZM222.734 47.1279L223.726 48.8644L223.735 48.8594L222.734 47.1279ZM231.567 50.1162L229.628 50.6074L229.63 50.6136L231.567 50.1162ZM231.984 76V78H233.984V76H231.984ZM223.107 76H221.107V78H223.107V76ZM220.625 52.2476L222.527 52.8632L222.53 52.8552L222.532 52.8472L220.625 52.2476ZM220.383 76V78H222.383V76H220.383ZM211.506 76H209.506V78H211.506V76ZM211.506 46.8423V44.8423H209.506V46.8423H211.506ZM218.54 46.7277L218.386 49.4084L222.38 49.6375L222.533 46.9569L218.54 46.7277ZM222.096 50.5554C222.595 49.7271 223.148 49.195 223.726 48.8644L221.742 45.3914C220.474 46.1156 219.46 47.1801 218.67 48.4905L222.096 50.5554ZM223.735 48.8594C224.332 48.5141 225.055 48.3149 225.964 48.3149V44.3149C224.441 44.3149 223.011 44.6577 221.733 45.3965L223.735 48.8594ZM225.964 48.3149C227.173 48.3149 227.967 48.5966 228.507 48.9974L230.891 45.7858C229.498 44.7511 227.802 44.3149 225.964 44.3149V48.3149ZM228.507 48.9974C229.129 49.4591 229.47 49.9843 229.628 50.6074L233.506 49.6251C233.107 48.0509 232.203 46.7596 230.891 45.7858L228.507 48.9974ZM229.63 50.6136C229.84 51.432 229.984 53.0264 229.984 55.5654H233.984C233.984 53.0068 233.851 50.9684 233.504 49.6188L229.63 50.6136ZM229.984 55.5654V76H233.984V55.5654H229.984ZM231.984 74H223.107V78H231.984V74ZM225.107 76V55.8071H221.107V76H225.107ZM225.107 55.8071C225.107 54.7873 225.091 53.9397 225.055 53.277C225.023 52.6856 224.969 52.0424 224.825 51.563L220.994 52.7124C220.982 52.6724 221.027 52.8606 221.061 53.4923C221.091 54.0527 221.107 54.8201 221.107 55.8071H225.107ZM224.825 51.563C224.628 50.9047 224.209 50.3146 223.565 49.9283C222.97 49.5711 222.334 49.4785 221.811 49.4785V53.4785C221.889 53.4785 221.736 53.4958 221.507 53.3583C221.386 53.2859 221.269 53.184 221.171 53.055C221.075 52.9279 221.022 52.8051 220.994 52.7124L224.825 51.563ZM221.811 49.4785C221.237 49.4785 220.568 49.5946 219.954 49.9925C219.312 50.409 218.916 51.0134 218.717 51.6479L222.532 52.8472C222.494 52.969 222.377 53.1889 222.13 53.3491C221.911 53.4906 221.755 53.4785 221.811 53.4785V49.4785ZM218.722 51.6319C218.553 52.1535 218.486 52.8535 218.447 53.5125C218.403 54.2428 218.383 55.1734 218.383 56.2905H222.383C222.383 55.2104 222.403 54.3686 222.44 53.7512C222.481 53.0625 222.535 52.8396 222.527 52.8632L218.722 51.6319ZM218.383 56.2905V76H222.383V56.2905H218.383ZM220.383 74H211.506V78H220.383V74ZM213.506 76V46.8423H209.506V76H213.506ZM211.506 48.8423H220.537V44.8423H211.506V48.8423ZM255.253 40.4263H257.253V38.4263H255.253V40.4263ZM255.253 76V78H257.253V76H255.253ZM246.376 76H244.376V78H246.376V76ZM246.376 73.8906H248.376V68.9441L244.938 72.5006L246.376 73.8906ZM237.17 75.4507L235.996 77.0702L236.004 77.0758L236.012 77.0813L237.17 75.4507ZM235.214 72.9238L233.295 73.485L233.299 73.4985L233.303 73.512L235.214 72.9238ZM235.214 49.8525L233.305 49.256L233.301 49.2696L233.297 49.2833L235.214 49.8525ZM237.192 47.3916L238.323 49.0411L238.331 49.0356L238.339 49.0301L237.192 47.3916ZM243.872 46.9082L243.073 48.7419L243.084 48.7465L243.872 46.9082ZM246.376 48.688L244.922 50.0612L248.376 53.7184V48.688H246.376ZM246.376 40.4263V38.4263H244.376V40.4263H246.376ZM246.091 52.0278L244.288 52.8933L244.302 52.9221L244.316 52.9505L246.091 52.0278ZM243.938 51.9839L242.196 50.9998L242.189 51.0129L242.182 51.0262L243.938 51.9839ZM243.938 70.8145L242.122 71.6526L242.128 71.6663L242.134 71.6799L243.938 70.8145ZM246.091 70.7485L247.905 71.5908L247.91 71.5787L247.916 71.5666L246.091 70.7485ZM253.253 40.4263V76H257.253V40.4263H253.253ZM255.253 74H246.376V78H255.253V74ZM248.376 76V73.8906H244.376V76H248.376ZM244.938 72.5006C244.228 73.2355 243.528 73.7379 242.847 74.0572L244.545 77.6791C245.738 77.1195 246.826 76.3036 247.814 75.2807L244.938 72.5006ZM242.847 74.0572C242.172 74.3734 241.481 74.5273 240.751 74.5273V78.5273C242.073 78.5273 243.344 78.2418 244.545 77.6791L242.847 74.0572ZM240.751 74.5273C239.741 74.5273 238.963 74.2711 238.328 73.82L236.012 77.0813C237.398 78.0658 239.008 78.5273 240.751 78.5273V74.5273ZM238.343 73.8312C237.594 73.288 237.262 72.7779 237.126 72.3357L233.303 73.512C233.753 74.974 234.724 76.1485 235.996 77.0702L238.343 73.8312ZM237.134 72.3627C236.942 71.7041 236.797 70.3975 236.797 68.2656H232.797C232.797 70.4404 232.931 72.2392 233.295 73.485L237.134 72.3627ZM236.797 68.2656V54.6206H232.797V68.2656H236.797ZM236.797 54.6206C236.797 52.3886 236.943 51.0563 237.132 50.4217L233.297 49.2833C232.929 50.5238 232.797 52.3701 232.797 54.6206H236.797ZM237.123 50.4491C237.25 50.0428 237.568 49.559 238.323 49.0411L236.061 45.7421C234.765 46.6304 233.764 47.7872 233.305 49.256L237.123 50.4491ZM238.339 49.0301C238.984 48.5786 239.793 48.3149 240.861 48.3149V44.3149C239.088 44.3149 237.451 44.7691 236.045 45.7531L238.339 49.0301ZM240.861 48.3149C241.715 48.3149 242.443 48.4675 243.073 48.7419L244.67 45.0745C243.484 44.5579 242.205 44.3149 240.861 44.3149V48.3149ZM243.084 48.7465C243.735 49.0254 244.347 49.4524 244.922 50.0612L247.83 47.3147C246.911 46.3416 245.854 45.582 244.659 45.0699L243.084 48.7465ZM248.376 48.688V40.4263H244.376V48.688H248.376ZM246.376 42.4263H255.253V38.4263H246.376V42.4263ZM248.376 54.1812C248.376 53.5958 248.351 53.0543 248.288 52.5778C248.229 52.1351 248.119 51.5939 247.865 51.1051L244.316 52.9505C244.276 52.8735 244.271 52.8385 244.282 52.878C244.291 52.913 244.307 52.9849 244.322 53.1038C244.354 53.3451 244.376 53.6972 244.376 54.1812H248.376ZM247.894 51.1624C247.272 49.866 246.022 49.4785 245.014 49.4785V53.4785C245.073 53.4785 244.963 53.4903 244.781 53.3974C244.567 53.288 244.388 53.1017 244.288 52.8933L247.894 51.1624ZM245.014 49.4785C244.062 49.4785 242.867 49.8137 242.196 50.9998L245.679 52.968C245.564 53.1701 245.386 53.3278 245.199 53.4153C245.04 53.49 244.952 53.4785 245.014 53.4785V49.4785ZM242.182 51.0262C241.902 51.5381 241.804 52.1208 241.754 52.5366C241.697 53.0124 241.674 53.5683 241.674 54.1812H245.674C245.674 53.6514 245.695 53.2699 245.725 53.0132C245.741 52.886 245.755 52.8154 245.762 52.7876C245.772 52.7496 245.759 52.8203 245.693 52.9416L242.182 51.0262ZM241.674 54.1812V68.4634H245.674V54.1812H241.674ZM241.674 68.4634C241.674 69.098 241.697 69.6712 241.752 70.1639C241.803 70.616 241.897 71.165 242.122 71.6526L245.753 69.9763C245.803 70.083 245.764 70.0498 245.727 69.7181C245.695 69.4272 245.674 69.0153 245.674 68.4634H241.674ZM242.134 71.6799C242.393 72.2181 242.807 72.6791 243.367 72.9837C243.903 73.2751 244.462 73.3638 244.948 73.3638V69.3638C244.936 69.3638 245.078 69.3609 245.277 69.4692C245.501 69.5907 245.658 69.777 245.741 69.949L242.134 71.6799ZM244.948 73.3638C245.462 73.3638 246.05 73.2726 246.611 72.9709C247.199 72.6539 247.637 72.1685 247.905 71.5908L244.277 69.9063C244.355 69.7387 244.506 69.5609 244.714 69.449C244.894 69.3524 245.005 69.3638 244.948 69.3638V73.3638ZM247.916 71.5666C248.157 71.0287 248.247 70.3774 248.296 69.8458C248.352 69.2471 248.376 68.5162 248.376 67.6724H244.376C244.376 68.4545 244.353 69.0493 244.314 69.476C244.294 69.6888 244.272 69.8363 244.253 69.9308C244.232 70.0393 244.226 70.0186 244.266 69.9304L247.916 71.5666ZM248.376 67.6724V54.1812H244.376V67.6724H248.376Z" fill="black"/>
<g filter="url(#filter1_d_1_7)">
<path d="M165.306 81.7998V232H131.165V130.599L117.527 232H93.3135L78.9336 132.918V232H44.793V81.7998H95.3545C96.8389 90.8298 98.416 101.468 100.086 113.714L105.467 151.937L114.373 81.7998H165.306ZM180.984 81.7998H246.111V111.858H220.042V140.34H244.441V168.914H220.042V201.941H248.709V232H180.984V81.7998Z" fill="white"/>
<path d="M165.306 81.7998H167.306V79.7998H165.306V81.7998ZM165.306 232V234H167.306V232H165.306ZM131.165 232H129.165V234H131.165V232ZM131.165 130.599H133.165L129.183 130.332L131.165 130.599ZM117.527 232V234H119.276L119.509 232.267L117.527 232ZM93.3135 232L91.3342 232.287L91.5828 234H93.3135V232ZM78.9336 132.918L80.9129 132.631L76.9336 132.918H78.9336ZM78.9336 232V234H80.9336V232H78.9336ZM44.793 232H42.793V234H44.793V232ZM44.793 81.7998V79.7998H42.793V81.7998H44.793ZM95.3545 81.7998L97.328 81.4754L97.0526 79.7998H95.3545V81.7998ZM100.086 113.714L98.1043 113.984L98.1055 113.993L100.086 113.714ZM105.467 151.937L103.486 152.215L107.451 152.188L105.467 151.937ZM114.373 81.7998V79.7998H112.611L112.389 81.5479L114.373 81.7998ZM163.306 81.7998V232H167.306V81.7998H163.306ZM165.306 230H131.165V234H165.306V230ZM133.165 232V130.599H129.165V232H133.165ZM129.183 130.332L115.545 231.733L119.509 232.267L133.147 130.865L129.183 130.332ZM117.527 230H93.3135V234H117.527V230ZM95.2927 231.713L80.9129 132.631L76.9543 133.205L91.3342 232.287L95.2927 231.713ZM76.9336 132.918V232H80.9336V132.918H76.9336ZM78.9336 230H44.793V234H78.9336V230ZM46.793 232V81.7998H42.793V232H46.793ZM44.793 83.7998H95.3545V79.7998H44.793V83.7998ZM93.381 82.1242C94.8616 91.1312 96.436 101.75 98.1043 113.984L102.068 113.444C100.396 101.185 98.8162 90.5283 97.328 81.4754L93.381 82.1242ZM98.1055 113.993L103.486 152.215L107.447 151.658L102.066 113.435L98.1055 113.993ZM107.451 152.188L116.357 82.0517L112.389 81.5479L103.483 151.685L107.451 152.188ZM114.373 83.7998H165.306V79.7998H114.373V83.7998ZM180.984 81.7998V79.7998H178.984V81.7998H180.984ZM246.111 81.7998H248.111V79.7998H246.111V81.7998ZM246.111 111.858V113.858H248.111V111.858H246.111ZM220.042 111.858V109.858H218.042V111.858H220.042ZM220.042 140.34H218.042V142.34H220.042V140.34ZM244.441 140.34H246.441V138.34H244.441V140.34ZM244.441 168.914V170.914H246.441V168.914H244.441ZM220.042 168.914V166.914H218.042V168.914H220.042ZM220.042 201.941H218.042V203.941H220.042V201.941ZM248.709 201.941H250.709V199.941H248.709V201.941ZM248.709 232V234H250.709V232H248.709ZM180.984 232H178.984V234H180.984V232ZM180.984 83.7998H246.111V79.7998H180.984V83.7998ZM244.111 81.7998V111.858H248.111V81.7998H244.111ZM246.111 109.858H220.042V113.858H246.111V109.858ZM218.042 111.858V140.34H222.042V111.858H218.042ZM220.042 142.34H244.441V138.34H220.042V142.34ZM242.441 140.34V168.914H246.441V140.34H242.441ZM244.441 166.914H220.042V170.914H244.441V166.914ZM218.042 168.914V201.941H222.042V168.914H218.042ZM220.042 203.941H248.709V199.941H220.042V203.941ZM246.709 201.941V232H250.709V201.941H246.709ZM248.709 230H180.984V234H248.709V230ZM182.984 232V81.7998H178.984V232H182.984Z" fill="black"/>
</g>
<defs>
<filter id="filter0_d_1_7" x="0" y="0" width="291" height="291" filterUnits="userSpaceOnUse" color-interpolation-filters="sRGB">
<feFlood flood-opacity="0" result="BackgroundImageFix"/>
<feColorMatrix in="SourceAlpha" type="matrix" values="0 0 0 0 0 0 0 0 0 0 0 0 0 0 0 0 0 0 127 0" result="hardAlpha"/>
<feOffset dy="4"/>
<feGaussianBlur stdDeviation="2"/>
<feComposite in2="hardAlpha" operator="out"/>
<feColorMatrix type="matrix" values="0 0 0 0 0 0 0 0 0 0 0 0 0 0 0 0 0 0 0.25 0"/>
<feBlend mode="normal" in2="BackgroundImageFix" result="effect1_dropShadow_1_7"/>
<feBlend mode="normal" in="SourceGraphic" in2="effect1_dropShadow_1_7" result="shape"/>
</filter>
<filter id="filter1_d_1_7" x="40.793" y="81.7998" width="211.916" height="158.2" filterUnits="userSpaceOnUse" color-interpolation-filters="sRGB">
<feFlood flood-opacity="0" result="BackgroundImageFix"/>
<feColorMatrix in="SourceAlpha" type="matrix" values="0 0 0 0 0 0 0 0 0 0 0 0 0 0 0 0 0 0 127 0" result="hardAlpha"/>
<feOffset dy="4"/>
<feGaussianBlur stdDeviation="2"/>
<feComposite in2="hardAlpha" operator="out"/>
<feColorMatrix type="matrix" values="0 0 0 0 0 0 0 0 0 0 0 0 0 0 0 0 0 0 0.25 0"/>
<feBlend mode="normal" in2="BackgroundImageFix" result="effect1_dropShadow_1_7"/>
<feBlend mode="normal" in="SourceGraphic" in2="effect1_dropShadow_1_7" result="shape"/>
</filter>
</defs>
</svg>
