<svg width="338" height="364" viewBox="0 0 338 364" fill="none" xmlns="http://www.w3.org/2000/svg">
<rect x="161.457" y="156.71" width="47.8104" height="100.202" transform="rotate(36.278 161.457 156.71)" fill="#FFD200"/>
<rect x="115.469" y="232" width="29.1799" height="25.551" transform="rotate(36.278 115.469 232)" fill="#FFD200"/>
<rect y="84" width="22" height="277" fill="black"/>
<path d="M255 221C255 218.239 257.239 216 260 216H272C274.761 216 277 218.239 277 221V363H260C257.239 363 255 360.761 255 358V221Z" fill="black"/>
<path d="M5 106C2.23858 106 0 103.761 0 101L0 84H110C112.761 84 115 86.2386 115 89V101C115 103.761 112.761 106 110 106H5Z" fill="black"/>
<rect x="107.306" y="266.586" width="4.43182" height="35.703" transform="rotate(175.36 107.306 266.586)" fill="black" stroke="black" stroke-width="8"/>
<rect x="104.282" y="267.751" width="4.43182" height="36.5795" transform="rotate(-93.6498 104.282 267.751)" fill="black" stroke="black" stroke-width="6"/>
<rect x="143.043" y="262.722" width="4" height="95.8538" transform="rotate(-141.331 143.043 262.722)" fill="black" stroke="black" stroke-width="8"/>
<rect x="158.464" y="155.898" width="4.57454" height="54.5373" transform="rotate(-50.254 158.464 155.898)" fill="black"/>
<rect x="104.248" y="229.753" width="4" height="95.85" transform="rotate(-141.331 104.248 229.753)" fill="black" stroke="black" stroke-width="8"/>
<path d="M0.145447 363.015L0.145447 341.015L277.145 341.015V363.015L0.145447 363.015Z" fill="black"/>
<circle cx="240.5" cy="97.5" r="77.5" fill="white"/>
<circle cx="240.5" cy="97.5" r="77.5" fill="#E21833" fill-opacity="0.8"/>
<circle cx="240.5" cy="97.5" r="77.5" stroke="black" stroke-width="40"/>
</svg>
